<svg width="50" height="50" viewBox="0 0 50 50" fill="none" xmlns="http://www.w3.org/2000/svg">
<rect x="1" y="1" width="48" height="48" fill="white" stroke="#252D35" stroke-width="2"/>
<path d="M33.4853 28.5147C32.1783 27.2077 30.6226 26.2402 28.9253 25.6545C30.7432 24.4024 31.9375 22.3069 31.9375 19.9375C31.9375 16.1122 28.8253 13 25 13C21.1747 13 18.0625 16.1122 18.0625 19.9375C18.0625 22.3069 19.2568 24.4024 21.0748 25.6545C19.3774 26.2402 17.8218 27.2077 16.5147 28.5147C14.2482 30.7812 13 33.7947 13 37H14.875C14.875 31.417 19.417 26.875 25 26.875C30.583 26.875 35.125 31.417 35.125 37H37C37 33.7947 35.7518 30.7812 33.4853 28.5147ZM25 25C22.2085 25 19.9375 22.729 19.9375 19.9375C19.9375 17.146 22.2085 14.875 25 14.875C27.7915 14.875 30.0625 17.146 30.0625 19.9375C30.0625 22.729 27.7915 25 25 25Z" fill="#252D35"/>
</svg>
